<?xml version="1.0" standalone="no"?>
<!DOCTYPE svg PUBLIC "-//W3C//DTD SVG 20010904//EN"
 "http://www.w3.org/TR/2001/REC-SVG-20010904/DTD/svg10.dtd">
<svg version="1.0" xmlns="http://www.w3.org/2000/svg"
 width="598.000000pt" height="418.000000pt" viewBox="0 0 598.000000 418.000000"
 preserveAspectRatio="xMidYMid meet">
<metadata>
Created by potrace 1.15, written by Peter Selinger 2001-2017
</metadata>
<g transform="translate(0.000000,418.000000) scale(0.100000,-0.100000)"
fill="#000000" stroke="none">
<path d="M1500 4095 c-47 -7 -123 -26 -170 -40 -70 -22 -96 -37 -148 -82 -70
-62 -134 -147 -182 -243 l-32 -64 1 -936 c1 -1113 11 -2082 21 -2078 7 3 510
589 1243 1448 144 168 333 379 422 470 219 225 317 376 366 567 21 83 25 211
8 282 -36 158 -167 280 -338 317 -125 26 -296 12 -434 -35 l-56 -19 -6 38
c-12 70 -72 178 -130 236 -58 56 -163 113 -246 132 -78 19 -228 22 -319 7z"/>
<path d="M3453 3248 c-132 -150 -744 -850 -1362 -1556 l-1122 -1283 2 -120 1
-119 347 0 346 1 882 1009 883 1010 725 -3 725 -2 0 242 c0 133 -4 244 -8 247
-5 3 -197 6 -428 7 -230 1 -463 4 -516 7 l-98 4 0 63 c0 34 3 103 6 153 l7 92
518 0 519 0 0 250 c0 236 -1 250 -19 260 -13 6 -217 10 -595 10 l-574 0 -239
-272z"/>
<path d="M3230 1612 c-151 -173 -495 -567 -763 -874 -268 -307 -485 -563 -482
-568 4 -6 129 -10 334 -10 l328 0 483 552 c266 304 487 553 491 553 4 0 113
-135 241 -300 129 -165 239 -300 244 -300 6 0 71 69 145 153 l134 154 3 -406
2 -406 245 0 245 0 0 885 0 885 -164 0 -165 0 -162 -185 c-89 -102 -165 -182
-169 -178 -4 4 -69 88 -145 186 l-138 177 -216 -1 -216 0 -275 -317z"/>
</g>
</svg>
